<?xml version="1.0" encoding="utf-8"?>
<!-- Generator: Adobe Illustrator 23.0.3, SVG Export Plug-In . SVG Version: 6.00 Build 0)  -->
<svg version="1.1" id="Layer_1" xmlns="http://www.w3.org/2000/svg" xmlns:xlink="http://www.w3.org/1999/xlink" x="0px" y="0px"
	 viewBox="0 0 250.4 66.6" style="enable-background:new 0 0 250.4 66.6;" xml:space="preserve">
<style type="text/css">
	.st0{fill:#FFFFFF;}
	.st1{fill:#217C3E;}
	.st2{fill:none;stroke:#FFFFFF;stroke-width:2;stroke-miterlimit:10;}
	.st3{fill:none;stroke:#FFFFFF;stroke-miterlimit:10;}
</style>
<path class="st0" d="M80.7,33.7c0.6,0.5,1.2,1,1.9,1.4c0.6,0.3,1.3,0.7,2,0.9c0.8,0.3,1.6,0.4,2.5,0.4c0.5,0,0.9-0.1,1.4-0.2
	c0.4-0.1,0.8-0.3,1.2-0.6c0.3-0.3,0.6-0.6,0.8-1c0.2-0.4,0.3-0.8,0.3-1.4c0-0.6-0.2-1.1-0.5-1.5c-0.3-0.4-0.8-0.8-1.4-1.2
	c-0.6-0.3-1.2-0.7-1.9-1c-0.7-0.3-1.5-0.6-2.2-1c-0.8-0.3-1.5-0.7-2.2-1.1s-1.4-0.9-1.9-1.4c-0.6-0.6-1-1.2-1.4-1.9
	c-0.3-0.7-0.5-1.6-0.5-2.6c0-1.1,0.2-2,0.7-3c0.4-0.9,1-1.7,1.8-2.4c0.8-0.7,1.7-1.2,2.7-1.6c1-0.4,2.2-0.6,3.4-0.6
	c1.3,0,2.4,0.1,3.3,0.4c1,0.3,1.8,0.6,2.4,0.9c0.8,0.4,1.4,0.9,1.9,1.4l-2,3.8c-0.5-0.4-1-0.8-1.6-1.1c-0.5-0.3-1.1-0.5-1.8-0.8
	c-0.7-0.2-1.4-0.4-2.2-0.4c-0.5,0-1,0.1-1.5,0.2c-0.5,0.2-0.9,0.4-1.2,0.6c-0.3,0.3-0.6,0.6-0.8,1c-0.2,0.4-0.3,0.8-0.3,1.2
	c0,0.6,0.2,1.1,0.5,1.5s0.8,0.8,1.4,1.1c0.6,0.3,1.2,0.6,1.9,0.9c0.7,0.3,1.5,0.6,2.2,0.9c0.8,0.3,1.5,0.7,2.2,1.1s1.4,0.9,1.9,1.5
	c0.6,0.6,1,1.2,1.4,2c0.3,0.8,0.5,1.6,0.5,2.7s-0.2,2-0.6,2.9s-0.9,1.7-1.7,2.4c-0.7,0.7-1.6,1.2-2.7,1.6c-1,0.4-2.2,0.6-3.6,0.6
	c-0.7,0-1.4-0.1-2-0.1c-0.6-0.1-1.2-0.2-1.8-0.4c-0.5-0.2-1.1-0.3-1.5-0.6c-0.5-0.2-0.9-0.4-1.3-0.6c-0.9-0.5-1.6-1.1-2.3-1.8
	L80.7,33.7z"/>
<path class="st0" d="M99.4,21.9h4.2v1.3c0,0.2,0,0.3,0,0.5s0,0.3,0,0.4s0,0.3,0,0.4h0.1c0.3-0.6,0.8-1.1,1.3-1.5
	c0.2-0.2,0.5-0.4,0.8-0.6s0.6-0.3,1-0.5c0.4-0.1,0.8-0.3,1.3-0.3c0.5-0.1,1-0.1,1.5-0.1c1.2,0,2.4,0.2,3.4,0.7s1.9,1.1,2.6,2
	c0.7,0.8,1.3,1.9,1.6,3.1c0.4,1.2,0.6,2.5,0.6,3.9c0,1.5-0.2,2.8-0.6,4c-0.4,1.2-1,2.2-1.8,3s-1.6,1.5-2.7,1.9
	c-1,0.5-2.2,0.7-3.4,0.7c-0.9,0-1.7-0.1-2.4-0.4c-0.7-0.3-1.2-0.6-1.6-0.9c-0.5-0.4-0.9-0.8-1.3-1.3h-0.1c0,0.1,0,0.3,0,0.4
	c0,0.1,0,0.3,0,0.5s0,0.4,0,0.6v7.7h-4.6L99.4,21.9L99.4,21.9z M103.8,31.2c0,0.7,0.1,1.4,0.3,2.1c0.2,0.7,0.5,1.3,0.9,1.8
	s0.9,1,1.4,1.3c0.6,0.3,1.2,0.5,2,0.5c0.6,0,1.2-0.1,1.8-0.4c0.6-0.3,1.1-0.6,1.5-1.1s0.8-1.1,1-1.8s0.4-1.5,0.4-2.4
	s-0.1-1.7-0.3-2.4c-0.2-0.7-0.5-1.3-0.9-1.8s-0.9-0.9-1.5-1.2c-0.6-0.3-1.2-0.4-1.9-0.4c-0.6,0-1.2,0.1-1.7,0.3
	c-0.6,0.2-1,0.6-1.5,1c-0.4,0.5-0.8,1.1-1,1.8C104,29.3,103.8,30.1,103.8,31.2z"/>
<path class="st0" d="M119.9,35c0-1,0.2-1.8,0.6-2.5s0.9-1.3,1.6-1.7c0.6-0.5,1.4-0.8,2.2-1.1c0.8-0.3,1.6-0.5,2.4-0.6
	s1.6-0.2,2.3-0.3c0.7,0,1.3-0.1,1.9-0.1h0.6v-0.3c0-0.6-0.1-1.1-0.3-1.5s-0.4-0.8-0.7-1c-0.3-0.3-0.7-0.4-1.1-0.5
	c-0.4-0.1-0.9-0.2-1.4-0.2c-0.7,0-1.3,0.1-1.9,0.3c-0.6,0.2-1.1,0.4-1.6,0.6c-0.6,0.3-1.1,0.6-1.5,0.9l-1.7-3.3
	c0.6-0.4,1.2-0.8,2-1.1c0.6-0.3,1.4-0.5,2.3-0.8c0.9-0.2,1.9-0.4,3-0.4c1.2,0,2.3,0.2,3.2,0.5c1,0.3,1.8,0.8,2.4,1.4
	c0.7,0.6,1.2,1.4,1.5,2.3s0.5,2,0.5,3.1v11.5H132v-1.5c0-0.2,0-0.3,0-0.5s0-0.3,0-0.4c0-0.1,0-0.3,0-0.4h-0.1l-0.1,0.2
	c-0.1,0.2-0.2,0.4-0.4,0.6c-0.2,0.2-0.4,0.5-0.7,0.8s-0.6,0.5-1.1,0.8c-0.4,0.2-0.9,0.5-1.4,0.6c-0.6,0.2-1.2,0.2-1.9,0.2
	c-0.8,0-1.6-0.1-2.4-0.4c-0.8-0.3-1.4-0.6-2-1.1s-1-1.1-1.4-1.8C120.1,36.7,119.9,35.9,119.9,35z M124.5,34.8c0,0.3,0.1,0.6,0.2,0.9
	c0.1,0.3,0.3,0.5,0.5,0.8c0.2,0.2,0.5,0.4,0.9,0.5c0.3,0.1,0.8,0.2,1.2,0.2c0.6,0,1.2-0.1,1.7-0.4c0.5-0.3,1-0.7,1.3-1.1
	c0.4-0.5,0.7-1,0.9-1.6s0.3-1.1,0.3-1.7V32h-0.8c-0.4,0-0.8,0-1.3,0s-0.9,0.1-1.4,0.1c-0.5,0.1-0.9,0.2-1.3,0.3s-0.8,0.3-1.1,0.5
	s-0.6,0.5-0.8,0.8C124.6,34,124.5,34.3,124.5,34.8z"/>
<path class="st0" d="M150.3,36.4c-0.1,0-0.2,0-0.3,0s-0.2,0-0.3,0c-0.3,0-0.7,0-1.1-0.1c-0.4-0.1-0.8-0.2-1.2-0.5
	c-0.4-0.2-0.7-0.6-1-1c-0.3-0.5-0.4-1.1-0.4-1.8v-7.1h4.2v-3.7H146v-5.3h-1.4c0,0.1,0,0.1,0,0.2c0,3.2-2.5,5.9-5.6,6.2v2.6h2.4v7.7
	c0,1,0.1,1.9,0.4,2.7c0.3,0.7,0.6,1.4,1,1.9s0.9,0.9,1.5,1.2c0.5,0.3,1.1,0.6,1.7,0.7c0.6,0.2,1.1,0.3,1.7,0.3
	c0.5,0.1,1,0.1,1.5,0.1s0.8,0,1-0.1c0.1,0,0.3,0,0.4-0.1v-4C150.5,36.4,150.4,36.4,150.3,36.4z"/>
<path class="st0" d="M154.3,14.6h4.6v4.1h-4.6V14.6z M154.3,21.9h4.6v18.4h-4.6V21.9z"/>
<path class="st0" d="M162.4,35c0-1,0.2-1.8,0.6-2.5c0.4-0.7,0.9-1.3,1.6-1.7c0.6-0.5,1.4-0.8,2.2-1.1c0.8-0.3,1.6-0.5,2.4-0.6
	c0.8-0.1,1.6-0.2,2.3-0.3c0.7,0,1.3-0.1,1.9-0.1h0.6v-0.3c0-0.6-0.1-1.1-0.3-1.5s-0.4-0.8-0.7-1c-0.3-0.3-0.7-0.4-1.1-0.5
	c-0.4-0.1-0.9-0.2-1.4-0.2c-0.7,0-1.3,0.1-1.9,0.3c-0.6,0.2-1.1,0.4-1.6,0.6c-0.6,0.3-1.1,0.6-1.5,0.9l-1.7-3.3
	c0.6-0.4,1.2-0.8,2-1.1c0.6-0.3,1.4-0.5,2.3-0.8c0.9-0.2,1.9-0.4,3-0.4c1.2,0,2.3,0.2,3.2,0.5c1,0.3,1.8,0.8,2.4,1.4
	c0.7,0.6,1.2,1.4,1.5,2.3s0.5,2,0.5,3.1v11.5h-4.2v-1.5c0-0.2,0-0.3,0-0.5s0-0.3,0-0.4c0-0.1,0-0.3,0-0.4h-0.1l-0.1,0.2
	c-0.1,0.2-0.2,0.4-0.4,0.6c-0.2,0.2-0.4,0.5-0.7,0.8s-0.6,0.5-1.1,0.8c-0.4,0.2-0.9,0.5-1.4,0.6c-0.6,0.2-1.2,0.2-1.9,0.2
	c-0.8,0-1.6-0.1-2.4-0.4c-0.8-0.3-1.4-0.6-2-1.1s-1-1.1-1.4-1.8C162.6,36.7,162.4,35.9,162.4,35z M167,34.8c0,0.3,0.1,0.6,0.2,0.9
	c0.1,0.3,0.3,0.5,0.5,0.8c0.2,0.2,0.5,0.4,0.9,0.5c0.3,0.1,0.8,0.2,1.2,0.2c0.6,0,1.2-0.1,1.7-0.4c0.5-0.3,1-0.7,1.3-1.1
	c0.4-0.5,0.7-1,0.9-1.6s0.3-1.1,0.3-1.7V32h-0.8c-0.4,0-0.8,0-1.3,0s-0.9,0.1-1.4,0.1c-0.5,0.1-0.9,0.2-1.3,0.3
	c-0.4,0.1-0.8,0.3-1.1,0.5s-0.6,0.5-0.8,0.8C167.1,34,167,34.3,167,34.8z"/>
<path class="st0" d="M183,14.6h4.6v19.2c0,0.5,0,0.9,0.1,1.3c0.1,0.3,0.2,0.6,0.4,0.8s0.4,0.3,0.6,0.4c0.2,0.1,0.5,0.1,0.8,0.1
	c0.1,0,0.2,0,0.3,0s0.1,0,0.2,0c0.1,0,0.1,0,0.2,0v4c-0.1,0-0.3,0-0.4,0.1c-0.3,0-0.6,0.1-1,0.1c-0.6,0-1.3-0.1-2-0.2
	c-0.7-0.1-1.3-0.4-1.8-0.8c-0.6-0.4-1-1-1.4-1.8s-0.5-1.8-0.5-3.2v-20C183.1,14.6,183,14.6,183,14.6z"/>
<path class="st0" d="M199.6,18.6h-8.4v-4h21.5v4h-8.4v21.7h-4.7L199.6,18.6L199.6,18.6z"/>
<path class="st0" d="M211.1,31.1c0-1.4,0.2-2.7,0.7-3.9c0.5-1.2,1.1-2.2,1.9-3.1s1.8-1.5,3-2c1.1-0.5,2.4-0.7,3.8-0.7
	c1.3,0,2.5,0.2,3.5,0.7s1.9,1.1,2.6,1.9c0.7,0.8,1.2,1.7,1.6,2.8c0.4,1.1,0.5,2.2,0.5,3.4c0,0.1,0,0.3,0,0.5s0,0.4,0,0.6
	s0,0.4-0.1,0.7h-12.7c0.1,0.8,0.3,1.5,0.6,2.1s0.7,1.1,1.2,1.5s1.1,0.7,1.7,0.9c0.6,0.2,1.3,0.3,2,0.3s1.4-0.1,2.1-0.3
	c0.6-0.2,1.2-0.4,1.7-0.7c0.6-0.3,1.1-0.6,1.6-1l1.8,3.3c-0.6,0.5-1.3,0.9-2,1.3c-0.6,0.3-1.4,0.6-2.3,0.9c-0.9,0.3-1.9,0.4-3.1,0.4
	c-1.5,0-2.9-0.3-4.1-0.8c-1.2-0.5-2.3-1.2-3.1-2.1c-0.9-0.9-1.5-1.9-2-3.1C211.4,33.6,211.1,32.4,211.1,31.1z M224,28.8
	c0-0.6-0.1-1.2-0.3-1.7s-0.4-0.9-0.8-1.2c-0.3-0.3-0.7-0.6-1.1-0.7c-0.4-0.2-0.9-0.2-1.4-0.2c-1.2,0-2.2,0.3-2.9,1
	c-0.8,0.7-1.3,1.6-1.5,2.8C216,28.8,224,28.8,224,28.8z"/>
<path class="st0" d="M231.1,31.1c0-1.3,0.2-2.5,0.7-3.7s1.1-2.2,2-3.1s1.9-1.6,3.2-2.1c1.2-0.5,2.6-0.8,4.1-0.8c0.6,0,1.2,0,1.7,0.1
	s1,0.2,1.4,0.3c0.4,0.1,0.8,0.3,1.2,0.4c0.4,0.2,0.7,0.3,1,0.5c0.7,0.4,1.3,0.9,1.7,1.4l-2,3.1c-0.4-0.4-0.8-0.7-1.3-1
	c-0.4-0.2-0.9-0.5-1.5-0.7s-1.2-0.3-2-0.3s-1.6,0.2-2.3,0.4c-0.7,0.3-1.3,0.7-1.8,1.2s-0.9,1.1-1.1,1.8c-0.3,0.7-0.4,1.4-0.4,2.2
	c0,0.8,0.1,1.5,0.4,2.2c0.3,0.7,0.7,1.3,1.2,1.8s1.1,0.9,1.8,1.3c0.7,0.3,1.5,0.5,2.4,0.5c0.8,0,1.5-0.1,2.2-0.4
	c0.7-0.2,1.2-0.5,1.7-0.8c0.6-0.3,1.1-0.7,1.6-1.2l1.8,3.3c-0.6,0.6-1.2,1.1-1.9,1.5c-0.3,0.2-0.7,0.4-1.1,0.6
	c-0.4,0.2-0.8,0.3-1.3,0.5c-0.5,0.1-1,0.3-1.5,0.3c-0.5,0.1-1.1,0.1-1.7,0.1c-1.5,0-2.9-0.3-4.1-0.8c-1.2-0.5-2.3-1.2-3.2-2.1
	c-0.9-0.9-1.5-1.9-2-3.1C231.4,33.7,231.1,32.4,231.1,31.1z"/>
<path class="st1" d="M70.7,41.6h-8.8L60.6,41c-0.9-0.6-0.9-1.8,0-2.4l1.3-0.6V26.1h-0.3c-1.7-0.8-2.1-2.3,0.2-3.3l0.1-0.1l7.7-2
	c0.8-0.1,1.5,0.5,1.4,1.3l-0.2,15.9l1.4,0.5c0.9,0.7,0.9,2,0.1,2.7L70.7,41.6z"/>
<ellipse transform="matrix(0.933 -0.3598 0.3598 0.933 -1.7073 24.6279)" class="st1" cx="65.3" cy="16.9" rx="4.9" ry="3"/>
<path class="st0" d="M162.2,47.7c-0.1-0.1-0.2-0.1-0.3-0.2c-0.1-0.1-0.3-0.2-0.5-0.3S161,47,160.7,47c-0.2-0.1-0.5-0.1-0.7-0.1
	c-0.4,0-0.8,0.1-1,0.2c-0.2,0.2-0.3,0.4-0.3,0.7c0,0.2,0,0.3,0.1,0.4c0.1,0.1,0.2,0.2,0.3,0.3c0.2,0.1,0.3,0.2,0.6,0.2
	c0.2,0.1,0.5,0.1,0.8,0.2c0.4,0.1,0.8,0.2,1.1,0.3s0.6,0.3,0.8,0.5s0.4,0.4,0.5,0.7s0.2,0.6,0.2,0.9c0,0.4-0.1,0.8-0.2,1.1
	c-0.2,0.3-0.4,0.6-0.7,0.7c-0.3,0.2-0.6,0.3-1,0.4c-0.4,0.1-0.7,0.1-1.1,0.1c-0.6,0-1.2-0.1-1.8-0.3s-1.1-0.4-1.6-0.8l0.7-1.4
	c0.1,0.1,0.2,0.2,0.4,0.3s0.4,0.2,0.6,0.3c0.2,0.1,0.5,0.2,0.8,0.3s0.6,0.1,0.9,0.1c0.9,0,1.3-0.3,1.3-0.8c0-0.2,0-0.3-0.1-0.4
	c-0.1-0.1-0.2-0.2-0.4-0.3s-0.4-0.2-0.7-0.3s-0.5-0.2-0.9-0.3s-0.7-0.2-1-0.3s-0.5-0.3-0.7-0.4c-0.2-0.2-0.3-0.4-0.4-0.6
	c-0.1-0.2-0.1-0.5-0.1-0.8c0-0.4,0.1-0.8,0.2-1.1c0.2-0.3,0.4-0.6,0.6-0.8c0.3-0.2,0.6-0.4,0.9-0.5c0.4-0.1,0.7-0.2,1.2-0.2
	c0.6,0,1.1,0.1,1.6,0.3s0.9,0.4,1.3,0.6L162.2,47.7z"/>
<path class="st0" d="M173.8,53.7h-1.5v-3.4c0-0.5-0.1-0.8-0.2-1.1c-0.2-0.2-0.4-0.3-0.7-0.3s-0.6,0.1-0.9,0.3
	c-0.3,0.2-0.5,0.5-0.6,0.9v3.5h-1.5v-3.4c0-0.5-0.1-0.8-0.2-1.1c-0.2-0.2-0.4-0.3-0.7-0.3s-0.6,0.1-0.9,0.3
	c-0.3,0.2-0.5,0.5-0.6,0.9v3.5h-1.5v-6h1.4v1.1c0.2-0.4,0.5-0.7,0.9-0.9s0.8-0.3,1.3-0.3s0.9,0.1,1.2,0.4c0.3,0.2,0.4,0.5,0.5,0.9
	c0.2-0.4,0.6-0.7,0.9-0.9c0.4-0.2,0.8-0.3,1.3-0.3c0.4,0,0.7,0.1,0.9,0.2c0.2,0.1,0.4,0.3,0.5,0.5s0.2,0.5,0.3,0.8
	c0,0.3,0.1,0.6,0.1,0.9V53.7z"/>
<path class="st0" d="M177.2,53.8c-0.3,0-0.6,0-0.8-0.1c-0.3-0.1-0.5-0.2-0.7-0.4s-0.3-0.4-0.4-0.6c-0.1-0.2-0.2-0.5-0.2-0.8
	s0.1-0.5,0.2-0.8c0.1-0.2,0.3-0.4,0.5-0.6c0.2-0.2,0.5-0.3,0.8-0.4c0.3-0.1,0.7-0.1,1-0.1s0.5,0,0.8,0.1c0.3,0,0.5,0.1,0.7,0.2V50
	c0-0.4-0.1-0.7-0.3-0.9s-0.6-0.3-1-0.3c-0.3,0-0.6,0.1-0.9,0.2c-0.3,0.1-0.6,0.3-0.9,0.5l-0.5-1c0.8-0.5,1.6-0.8,2.5-0.8
	s1.5,0.2,2,0.6c0.5,0.4,0.7,1,0.7,1.8V52c0,0.2,0,0.3,0.1,0.3c0.1,0.1,0.2,0.1,0.3,0.1v1.3c-0.3,0.1-0.5,0.1-0.7,0.1
	c-0.3,0-0.5-0.1-0.7-0.2c-0.2-0.1-0.3-0.3-0.3-0.5v-0.3c-0.3,0.4-0.6,0.6-1,0.8C178,53.7,177.6,53.8,177.2,53.8z M177.6,52.7
	c0.3,0,0.5,0,0.7-0.1s0.4-0.2,0.5-0.4c0.2-0.1,0.3-0.3,0.3-0.4v-0.7c-0.2-0.1-0.4-0.1-0.6-0.2c-0.2,0-0.4-0.1-0.6-0.1
	c-0.4,0-0.7,0.1-1,0.3s-0.4,0.4-0.4,0.7s0.1,0.5,0.3,0.6C177.1,52.6,177.3,52.7,177.6,52.7z"/>
<path class="st0" d="M186,49.1c-0.5,0-0.9,0.1-1.2,0.3c-0.4,0.2-0.6,0.4-0.8,0.8v3.6h-1.5v-6h1.4V49c0.1-0.2,0.2-0.4,0.4-0.6
	c0.1-0.2,0.3-0.3,0.5-0.4c0.2-0.1,0.3-0.2,0.5-0.3s0.3-0.1,0.5-0.1c0.1,0,0.1,0,0.2,0h0.1L186,49.1L186,49.1z"/>
<path class="st0" d="M190.8,53.4c-0.2,0.1-0.5,0.2-0.8,0.3s-0.6,0.1-0.9,0.1c-0.2,0-0.4,0-0.6-0.1c-0.2-0.1-0.4-0.1-0.5-0.3
	c-0.1-0.1-0.3-0.3-0.3-0.5c-0.1-0.2-0.1-0.4-0.1-0.7v-3.4h-0.8v-1.2h0.8v-1.9h1.5v1.9h1.3v1.2h-1.3v2.9c0,0.2,0.1,0.4,0.2,0.5
	c0.1,0.1,0.2,0.1,0.4,0.1s0.3,0,0.5-0.1s0.3-0.1,0.4-0.1L190.8,53.4z"/>
<path class="st0" d="M200,47.7c-0.1-0.1-0.2-0.1-0.3-0.2c-0.1-0.1-0.3-0.2-0.5-0.3s-0.4-0.2-0.7-0.2c-0.2-0.1-0.5-0.1-0.7-0.1
	c-0.4,0-0.8,0.1-1,0.2c-0.2,0.2-0.3,0.4-0.3,0.7c0,0.2,0,0.3,0.1,0.4c0.1,0.1,0.2,0.2,0.3,0.3c0.2,0.1,0.3,0.2,0.6,0.2
	c0.2,0.1,0.5,0.1,0.8,0.2c0.4,0.1,0.8,0.2,1.1,0.3s0.6,0.3,0.8,0.5s0.4,0.4,0.5,0.7s0.2,0.6,0.2,0.9c0,0.4-0.1,0.8-0.2,1.1
	c-0.2,0.3-0.4,0.6-0.7,0.7c-0.3,0.2-0.6,0.3-1,0.4c-0.4,0.1-0.7,0.1-1.1,0.1c-0.6,0-1.2-0.1-1.8-0.3s-1.1-0.4-1.6-0.8l0.7-1.4
	c0.1,0.1,0.2,0.2,0.4,0.3s0.4,0.2,0.6,0.3c0.2,0.1,0.5,0.2,0.8,0.3s0.6,0.1,0.9,0.1c0.9,0,1.3-0.3,1.3-0.8c0-0.2,0-0.3-0.1-0.4
	c-0.1-0.1-0.2-0.2-0.4-0.3s-0.4-0.2-0.7-0.3s-0.5-0.2-0.9-0.3s-0.7-0.2-1-0.3s-0.5-0.3-0.7-0.4c-0.2-0.2-0.3-0.4-0.4-0.6
	c-0.1-0.2-0.1-0.5-0.1-0.8c0-0.4,0.1-0.8,0.2-1.1c0.2-0.3,0.4-0.6,0.6-0.8c0.3-0.2,0.6-0.4,0.9-0.5c0.4-0.1,0.7-0.2,1.2-0.2
	c0.6,0,1.1,0.1,1.6,0.3s0.9,0.4,1.3,0.6L200,47.7z"/>
<path class="st0" d="M205.1,53.8c-0.5,0-0.9-0.1-1.3-0.3c-0.4-0.2-0.7-0.4-1-0.7s-0.5-0.6-0.6-1S202,51,202,50.6s0.1-0.8,0.2-1.2
	c0.1-0.4,0.4-0.7,0.6-1c0.3-0.3,0.6-0.5,1-0.7s0.8-0.3,1.3-0.3s0.9,0.1,1.3,0.3c0.4,0.2,0.7,0.4,1,0.7s0.5,0.6,0.6,1
	s0.2,0.8,0.2,1.2s-0.1,0.8-0.2,1.2c-0.1,0.4-0.4,0.7-0.6,1c-0.3,0.3-0.6,0.5-1,0.7C206.1,53.8,205.6,53.8,205.1,53.8z M203.6,50.7
	c0,0.3,0,0.5,0.1,0.7s0.2,0.4,0.3,0.6c0.1,0.2,0.3,0.3,0.5,0.4c0.2,0.1,0.4,0.1,0.6,0.1c0.2,0,0.4,0,0.6-0.1
	c0.2-0.1,0.4-0.2,0.5-0.4s0.3-0.4,0.3-0.6c0.1-0.2,0.1-0.5,0.1-0.7c0-0.3,0-0.5-0.1-0.7s-0.2-0.4-0.3-0.6c-0.1-0.2-0.3-0.3-0.5-0.4
	c-0.2-0.1-0.4-0.1-0.6-0.1c-0.2,0-0.4,0-0.6,0.1c-0.2,0.1-0.4,0.2-0.5,0.4s-0.3,0.4-0.3,0.6C203.6,50.2,203.6,50.5,203.6,50.7z"/>
<path class="st0" d="M209.6,45.4h1.5v6.4c0,0.2,0.1,0.4,0.2,0.5c0.1,0.1,0.3,0.2,0.5,0.2c0.1,0,0.2,0,0.3,0s0.2-0.1,0.3-0.1l0.2,1.2
	c-0.2,0.1-0.4,0.2-0.7,0.2c-0.3,0.1-0.5,0.1-0.7,0.1c-0.5,0-0.9-0.1-1.1-0.4c-0.3-0.3-0.4-0.6-0.4-1.1v-7
	C209.7,45.4,209.6,45.4,209.6,45.4z"/>
<path class="st0" d="M215.4,53.8c-0.6,0-1.1-0.2-1.4-0.6c-0.3-0.4-0.5-1-0.5-1.8v-3.8h1.5V51c0,0.9,0.3,1.4,1,1.4
	c0.3,0,0.6-0.1,0.9-0.3c0.3-0.2,0.5-0.5,0.7-0.8v-3.7h1.5V52c0,0.2,0,0.3,0.1,0.3c0.1,0.1,0.2,0.1,0.3,0.1v1.3c-0.2,0-0.3,0-0.4,0.1
	c-0.1,0-0.2,0-0.3,0c-0.3,0-0.5-0.1-0.7-0.2c-0.2-0.1-0.3-0.3-0.3-0.5v-0.5c-0.3,0.4-0.6,0.7-1,0.9
	C216.4,53.7,215.9,53.8,215.4,53.8z"/>
<path class="st0" d="M224.6,53.4c-0.2,0.1-0.5,0.2-0.8,0.3s-0.6,0.1-0.9,0.1c-0.2,0-0.4,0-0.6-0.1c-0.2-0.1-0.4-0.1-0.5-0.3
	c-0.1-0.1-0.3-0.3-0.3-0.5c-0.1-0.2-0.1-0.4-0.1-0.7v-3.4h-0.8v-1.2h0.8v-1.9h1.5v1.9h1.3v1.2h-1.3v2.9c0,0.2,0.1,0.4,0.2,0.5
	c0.1,0.1,0.2,0.1,0.4,0.1s0.3,0,0.5-0.1s0.3-0.1,0.4-0.1L224.6,53.4z"/>
<path class="st0" d="M225.7,46.9v-1.5h1.5v1.5H225.7z M225.7,53.7v-6h1.5v6H225.7z"/>
<path class="st0" d="M231.8,53.8c-0.5,0-0.9-0.1-1.3-0.3c-0.4-0.2-0.7-0.4-1-0.7s-0.5-0.6-0.6-1s-0.2-0.8-0.2-1.2s0.1-0.8,0.2-1.2
	c0.1-0.4,0.4-0.7,0.6-1c0.3-0.3,0.6-0.5,1-0.7s0.8-0.3,1.3-0.3s0.9,0.1,1.3,0.3c0.4,0.2,0.7,0.4,1,0.7s0.5,0.6,0.6,1
	s0.2,0.8,0.2,1.2s-0.1,0.8-0.2,1.2c-0.1,0.4-0.4,0.7-0.6,1c-0.3,0.3-0.6,0.5-1,0.7C232.7,53.8,232.3,53.8,231.8,53.8z M230.2,50.7
	c0,0.3,0,0.5,0.1,0.7s0.2,0.4,0.3,0.6c0.1,0.2,0.3,0.3,0.5,0.4c0.2,0.1,0.4,0.1,0.6,0.1c0.2,0,0.4,0,0.6-0.1
	c0.2-0.1,0.4-0.2,0.5-0.4s0.3-0.4,0.3-0.6c0.1-0.2,0.1-0.5,0.1-0.7c0-0.3,0-0.5-0.1-0.7s-0.2-0.4-0.3-0.6c-0.1-0.2-0.3-0.3-0.5-0.4
	c-0.2-0.1-0.4-0.1-0.6-0.1c-0.2,0-0.4,0-0.6,0.1c-0.2,0.1-0.4,0.2-0.5,0.4s-0.3,0.4-0.3,0.6C230.2,50.2,230.2,50.5,230.2,50.7z"/>
<path class="st0" d="M241.8,53.7h-1.5v-3.4c0-0.5-0.1-0.8-0.3-1.1c-0.2-0.2-0.4-0.3-0.7-0.3c-0.2,0-0.3,0-0.5,0.1s-0.3,0.1-0.5,0.3
	c-0.1,0.1-0.3,0.2-0.4,0.4c-0.1,0.2-0.2,0.3-0.3,0.5v3.5h-1.5v-6h1.4v1.1c0.2-0.4,0.5-0.7,1-0.9c0.4-0.2,0.9-0.3,1.4-0.3
	c0.4,0,0.7,0.1,0.9,0.2c0.2,0.1,0.4,0.3,0.5,0.5s0.2,0.5,0.3,0.8c0,0.3,0.1,0.6,0.1,0.9v3.7H241.8z"/>
<path class="st0" d="M245.8,53.8c-0.5,0-1-0.1-1.5-0.2c-0.5-0.2-0.9-0.4-1.2-0.7l0.6-1c0.4,0.3,0.7,0.5,1.1,0.6
	c0.3,0.1,0.7,0.2,1,0.2s0.5-0.1,0.7-0.2c0.2-0.1,0.3-0.3,0.3-0.5s-0.1-0.4-0.3-0.5s-0.5-0.2-1-0.3c-0.4-0.1-0.7-0.2-1-0.3
	s-0.5-0.2-0.7-0.3s-0.3-0.3-0.4-0.4c-0.1-0.2-0.1-0.4-0.1-0.6c0-0.3,0.1-0.6,0.2-0.8c0.1-0.2,0.3-0.5,0.5-0.6
	c0.2-0.2,0.5-0.3,0.7-0.4c0.3-0.1,0.6-0.1,0.9-0.1c0.4,0,0.9,0.1,1.3,0.2c0.4,0.1,0.8,0.3,1.1,0.6l-0.6,0.9
	c-0.3-0.2-0.6-0.4-0.9-0.5s-0.6-0.2-0.9-0.2c-0.3,0-0.5,0.1-0.7,0.2c-0.2,0.1-0.3,0.3-0.3,0.5c0,0.1,0,0.2,0.1,0.3
	c0,0.1,0.1,0.1,0.2,0.2c0.1,0.1,0.2,0.1,0.4,0.2c0.1,0,0.3,0.1,0.6,0.2c0.4,0.1,0.8,0.2,1.1,0.3s0.5,0.2,0.7,0.4
	c0.2,0.1,0.3,0.3,0.4,0.5s0.1,0.4,0.1,0.6c0,0.6-0.2,1.1-0.7,1.4C247.1,53.7,246.5,53.8,245.8,53.8z"/>
<line class="st2" x1="60.1" y1="49.9" x2="152.7" y2="49.9"/>
<line class="st3" x1="60.2" y1="51.5" x2="152.9" y2="51.5"/>
<image style="overflow:visible;enable-background:new    ;" width="155" height="161" xlink:href="5F94D2F0.png"  transform="matrix(0.4465 0 0 0.4465 -9 -4.6449)">
</image>
</svg>
