<?xml version="1.0" encoding="utf-8"?>
<!-- Generator: Adobe Illustrator 23.0.6, SVG Export Plug-In . SVG Version: 6.00 Build 0)  -->
<svg version="1.1" id="Layer_1" xmlns="http://www.w3.org/2000/svg" xmlns:xlink="http://www.w3.org/1999/xlink" x="0px" y="0px"
	 viewBox="0 0 147 49" style="enable-background:new 0 0 147 49;" xml:space="preserve">
<style type="text/css">
	.st0{fill:url(#SVGID_1_);}
	.st1{fill:#1F5DA8;}
	.st2{fill:#FFFFFF;}
	.st3{fill:#58C5C7;}
</style>
<linearGradient id="SVGID_1_" gradientUnits="userSpaceOnUse" x1="149.3695" y1="-1.3674" x2="69.1057" y2="28.3808" gradientTransform="matrix(1 0 0 -1 0 51.26)">
	<stop  offset="0" style="stop-color:#59C5C7"/>
	<stop  offset="1" style="stop-color:#205EA9"/>
</linearGradient>
<path class="st0" d="M132.9,41.8H16.7c-4.3,0-7.9-3.5-7.9-7.9V16c0-4.3,3.5-7.9,7.9-7.9h116.2c4.3,0,7.9,3.5,7.9,7.9v18
	C140.8,38.3,137.2,41.8,132.9,41.8z"/>
<circle class="st1" cx="23.7" cy="24.6" r="23"/>
<circle class="st2" cx="23.7" cy="24.6" r="18.3"/>
<g>
	<path class="st2" d="M49.8,29.2l-3-8.4h1.8l2.1,6.2l2.1-6.2h1.8l-3,8.4H49.8z"/>
	<path class="st2" d="M55.4,29.2v-8.4h1.7v8.4H55.4z"/>
	<path class="st2" d="M58.7,29.2v-8.4H65v1.4h-4.5v1.9h4.2v1.4h-4.2v2.3h4.7v1.4C65.2,29.2,58.7,29.2,58.7,29.2z"/>
	<path class="st2" d="M67.8,29.2l-2-8.4h1.7l1.3,5.8l1.5-5.8h2l1.5,5.9l1.3-5.9h1.7l-2.1,8.4H73l-1.7-6.3l-1.7,6.3H67.8z"/>
	<path class="st2" d="M86.4,26.1l1.7,0.5c-0.3,0.9-0.7,1.6-1.3,2.1s-1.3,0.7-2.2,0.7c-1.1,0-2-0.4-2.8-1.1c-0.7-0.8-1.1-1.8-1.1-3.1
		c0-1.4,0.4-2.5,1.1-3.3s1.7-1.2,2.9-1.2c1,0,1.9,0.3,2.5,0.9c0.4,0.4,0.7,0.9,0.9,1.6l-1.7,0.4c-0.1-0.4-0.3-0.8-0.6-1
		c-0.3-0.2-0.7-0.4-1.1-0.4c-0.6,0-1.1,0.2-1.5,0.7c-0.4,0.5-0.6,1.2-0.6,2.2c0,1.1,0.2,1.8,0.6,2.3c0.4,0.5,0.9,0.7,1.5,0.7
		c0.5,0,0.8-0.1,1.2-0.4C86,27.2,86.3,26.7,86.4,26.1z"/>
	<path class="st2" d="M97.1,29.2h-1.9l-0.7-1.9h-3.4l-0.7,1.9h-1.8l3.3-8.4h1.8L97.1,29.2z M94,25.9l-1.2-3.1l-1.1,3.1H94z"/>
	<path class="st2" d="M99,29.2v-7h-2.5v-1.4h6.7v1.4h-2.5v7H99z"/>
	<path class="st2" d="M111.1,29.2h-1.9l-0.7-1.9h-3.4l-0.7,1.9h-1.8l3.3-8.4h1.8L111.1,29.2z M107.9,25.9l-1.2-3.1l-1.1,3.1H107.9z"
		/>
	<path class="st2" d="M112,29.2v-8.4h1.7v6.9h4.2v1.4H112z"/>
	<path class="st2" d="M118.8,25c0-0.9,0.1-1.6,0.4-2.2c0.2-0.4,0.5-0.8,0.8-1.2c0.3-0.3,0.7-0.6,1.1-0.8c0.5-0.2,1.1-0.3,1.8-0.3
		c1.2,0,2.2,0.4,3,1.2c0.7,0.8,1.1,1.8,1.1,3.2c0,1.4-0.4,2.4-1.1,3.2c-0.7,0.8-1.7,1.1-3,1.1c-1.3,0-2.2-0.4-3-1.1
		C119.2,27.4,118.8,26.4,118.8,25z M120.6,25c0,1,0.2,1.7,0.7,2.2c0.4,0.5,1,0.7,1.7,0.7s1.2-0.2,1.7-0.7c0.4-0.5,0.7-1.2,0.7-2.2
		c0-1-0.2-1.7-0.6-2.2c-0.4-0.5-1-0.7-1.7-0.7s-1.3,0.2-1.7,0.7S120.6,24,120.6,25z"/>
	<path class="st2" d="M132.3,26.1v-1.4h3.7V28c-0.4,0.3-0.9,0.6-1.6,0.9c-0.7,0.3-1.4,0.4-2.1,0.4c-0.9,0-1.7-0.2-2.3-0.6
		c-0.7-0.4-1.1-0.9-1.5-1.6c-0.3-0.7-0.5-1.4-0.5-2.2c0-0.9,0.2-1.7,0.6-2.3c0.4-0.7,0.9-1.2,1.6-1.6c0.5-0.3,1.2-0.4,2-0.4
		c1.1,0,1.9,0.2,2.5,0.7s1,1.1,1.1,1.8l-1.7,0.3c-0.1-0.4-0.3-0.7-0.7-1c-0.3-0.2-0.7-0.4-1.2-0.4c-0.7,0-1.3,0.2-1.8,0.7
		c-0.4,0.5-0.7,1.2-0.7,2.1c0,1,0.2,1.7,0.7,2.2c0.4,0.5,1,0.7,1.7,0.7c0.4,0,0.7-0.1,1.1-0.2s0.7-0.3,0.9-0.5v-1.1L132.3,26.1
		L132.3,26.1z"/>
</g>
<g>
	<path class="st3" d="M31.6,20.2v12c0,0.6-0.4,1-1,1h-14c-0.6,0-1-0.4-1-1V15.5c0-0.6,0.4-1,1-1H26c0.6,0,1.3,0.3,1.7,0.7l3.2,3.2
		C31.3,18.8,31.6,19.6,31.6,20.2z M30.3,21.1H26c-0.6,0-1-0.4-1-1v-4.3h-8v16h13.3V21.1z M25.8,26.2c0.4,0,0.8-0.1,1.2-0.1
		c0.7,0,1.6,0.1,1.8,0.5c0.1,0.1,0.1,0.3,0,0.5c0,0,0,0,0,0v0c0,0.2-0.2,0.4-0.7,0.4c-0.7,0-1.7-0.3-2.5-0.8c-1.4,0.2-3,0.5-4.1,0.9
		c-1.1,1.8-1.9,2.7-2.5,2.7c-0.1,0-0.2,0-0.3-0.1l-0.2-0.1c0,0,0,0-0.1,0c0,0-0.1-0.2-0.1-0.4c0.1-0.5,0.7-1.3,2-2
		c0.1,0,0.2,0,0.2,0.1c0,0,0,0,0,0c0.3-0.5,0.7-1.2,1.1-2c0.5-0.9,0.8-1.8,1.1-2.7c-0.3-1.1-0.4-2.3-0.2-3c0.1-0.3,0.2-0.4,0.4-0.4
		h0.2h0c0.2,0,0.3,0,0.4,0.2c0.1,0.1,0.2,0.4,0.1,0.7c0,0,0,0.1,0,0.1c0,0,0,0,0,0.1c0,0.1,0,0.2,0,0.3c0,0.7,0,1.3-0.1,2
		c0.4,1.1,0.9,2,1.5,2.5C25.2,25.8,25.5,26,25.8,26.2z M20.4,28.2c-0.8,0.6-1.3,1.3-1.4,1.6C19.3,29.8,19.7,29.3,20.4,28.2z
		 M24.8,26.4c-0.1-0.1-0.2-0.2-0.3-0.2c-0.5-0.4-1-1.1-1.3-1.8c-0.2,0.6-0.5,1.3-0.9,2c-0.2,0.3-0.3,0.6-0.5,0.9
		C22.7,26.8,23.8,26.5,24.8,26.4z M23.1,21.7c0-0.2,0-0.3,0.1-0.5c0-0.2,0-0.3,0.1-0.5c0,0,0,0,0-0.1c0,0,0,0,0,0
		c0-0.2-0.1-0.3-0.1-0.4c0,0,0,0,0,0C23,20.6,23,21.1,23.1,21.7z M26.3,19.8h3.9c-0.1-0.2-0.2-0.4-0.2-0.4l-3.3-3.3
		c-0.1-0.1-0.2-0.2-0.4-0.2L26.3,19.8L26.3,19.8z M27.1,26.8c0.5,0.2,1,0.3,1.3,0.3c0.1,0,0.1,0,0.2,0c0,0,0,0,0,0
		C28.5,27,28.2,26.8,27.1,26.8z"/>
</g>
</svg>
