<?xml version="1.0" encoding="utf-8"?>
<!-- Generator: Adobe Illustrator 23.0.6, SVG Export Plug-In . SVG Version: 6.00 Build 0)  -->
<svg version="1.1" id="Layer_1" xmlns="http://www.w3.org/2000/svg" xmlns:xlink="http://www.w3.org/1999/xlink" x="0px" y="0px"
	 viewBox="0 0 147 49" style="enable-background:new 0 0 147 49;" xml:space="preserve">
<style type="text/css">
	.st0{fill:url(#SVGID_1_);}
	.st1{fill:#1F5DA8;}
	.st2{fill:#FFFFFF;}
	.st3{fill:#58C5C7;}
</style>
<linearGradient id="SVGID_1_" gradientUnits="userSpaceOnUse" x1="184.6605" y1="-12.9825" x2="47.1456" y2="35.2881" gradientTransform="matrix(1 0 0 -1 0 51.26)">
	<stop  offset="0" style="stop-color:#59C5C7"/>
	<stop  offset="1" style="stop-color:#205EA9"/>
</linearGradient>
<path class="st0" d="M132.9,42.5H16.8c-4.3,0-7.9-3.5-7.9-7.9v-18c0-4.3,3.5-7.9,7.9-7.9h116.2c4.3,0,7.9,3.5,7.9,7.9v18
	C140.8,39,137.3,42.5,132.9,42.5z"/>
<circle class="st1" cx="23.8" cy="25.3" r="23"/>
<circle class="st2" cx="23.8" cy="25.3" r="18.3"/>
<polygon class="st3" points="18.2,33.6 18.3,24.8 18.5,16 26,20.5 33.5,25.1 25.8,29.3 "/>
<g>
	<path class="st2" d="M50.8,29.9l-2-8.4h1.7l1.3,5.8l1.5-5.8h2l1.5,5.9l1.3-5.9h1.7l-2.1,8.4H56l-1.7-6.3l-1.7,6.3H50.8z"/>
	<path class="st2" d="M67.7,29.9h-1.9L65.1,28h-3.4L61,29.9h-1.8l3.3-8.4h1.8L67.7,29.9z M64.6,26.6l-1.2-3.1l-1.1,3.1H64.6z"/>
	<path class="st2" d="M69.6,29.9v-7h-2.5v-1.4h6.7v1.4h-2.5v7H69.6z"/>
	<path class="st2" d="M80.3,26.8l1.7,0.5c-0.3,0.9-0.7,1.6-1.3,2.1S79.4,30,78.5,30c-1.1,0-2-0.4-2.8-1.1c-0.7-0.8-1.1-1.8-1.1-3.1
		c0-1.4,0.4-2.5,1.1-3.3c0.7-0.8,1.7-1.2,2.9-1.2c1,0,1.9,0.3,2.5,0.9c0.4,0.4,0.7,0.9,0.9,1.6l-1.7,0.4c-0.1-0.4-0.3-0.8-0.6-1
		c-0.3-0.2-0.7-0.4-1.1-0.4c-0.6,0-1.1,0.2-1.5,0.7c-0.4,0.5-0.6,1.2-0.6,2.2c0,1.1,0.2,1.8,0.6,2.3c0.4,0.5,0.9,0.7,1.5,0.7
		c0.5,0,0.8-0.1,1.2-0.4C79.9,27.9,80.2,27.4,80.3,26.8z"/>
	<path class="st2" d="M83.4,29.9v-8.4h1.7v3.3h3.3v-3.3h1.7v8.4h-1.7v-3.7h-3.3v3.7H83.4z"/>
	<path class="st2" d="M97.4,29.9l-3-8.4h1.8l2.1,6.2l2.1-6.2h1.8l-3,8.4H97.4z"/>
	<path class="st2" d="M103,29.9v-8.4h1.7v8.4H103z"/>
	<path class="st2" d="M106.3,21.5h3.1c0.7,0,1.2,0,1.6,0.2c0.5,0.1,0.9,0.4,1.3,0.8c0.3,0.4,0.6,0.8,0.8,1.4c0.2,0.5,0.3,1.2,0.3,2
		c0,0.7-0.1,1.3-0.3,1.8c-0.2,0.6-0.5,1.1-0.9,1.5c-0.3,0.3-0.7,0.5-1.2,0.7c-0.4,0.1-0.9,0.2-1.5,0.2h-3.2L106.3,21.5L106.3,21.5z
		 M108.1,22.9v5.6h1.3c0.5,0,0.8,0,1-0.1c0.3-0.1,0.5-0.2,0.7-0.4s0.3-0.4,0.4-0.8s0.2-0.9,0.2-1.5s-0.1-1.1-0.2-1.5
		s-0.3-0.6-0.5-0.8c-0.2-0.2-0.5-0.3-0.8-0.4c-0.2,0-0.7-0.1-1.4-0.1L108.1,22.9L108.1,22.9z"/>
	<path class="st2" d="M114.9,29.9v-8.4h6.3v1.4h-4.5v1.9h4.2v1.4h-4.2v2.3h4.7v1.4C121.3,29.9,114.9,29.9,114.9,29.9z"/>
	<path class="st2" d="M122.4,25.7c0-0.9,0.1-1.6,0.4-2.2c0.2-0.4,0.5-0.8,0.8-1.2c0.3-0.3,0.7-0.6,1.1-0.8c0.5-0.2,1.1-0.3,1.8-0.3
		c1.2,0,2.2,0.4,3,1.2c0.7,0.8,1.1,1.8,1.1,3.2c0,1.4-0.4,2.4-1.1,3.2c-0.7,0.8-1.7,1.1-3,1.1c-1.3,0-2.2-0.4-3-1.1
		C122.8,28.1,122.4,27.1,122.4,25.7z M124.1,25.7c0,1,0.2,1.7,0.7,2.2s1,0.7,1.7,0.7c0.7,0,1.2-0.2,1.7-0.7c0.4-0.5,0.7-1.2,0.7-2.2
		c0-1-0.2-1.7-0.6-2.2c-0.4-0.5-1-0.7-1.7-0.7s-1.3,0.2-1.7,0.7C124.3,24,124.1,24.7,124.1,25.7z"/>
</g>
</svg>
