<?xml version="1.0" encoding="utf-8"?>
<!-- Generator: Adobe Illustrator 23.0.3, SVG Export Plug-In . SVG Version: 6.00 Build 0)  -->
<svg version="1.1" id="Layer_1" xmlns="http://www.w3.org/2000/svg" xmlns:xlink="http://www.w3.org/1999/xlink" x="0px" y="0px"
	 viewBox="0 0 100 100" style="enable-background:new 0 0 100 100;" xml:space="preserve">
<style type="text/css">
	.st0{fill:none;stroke:#FFFFFF;stroke-miterlimit:10;}
</style>
<g>
	<polyline class="st0" points="2,39.43 26.52,39.43 39.17,2.25 48.56,57.81 55.1,29.4 94.21,29.4 	"/>
	<path class="st0" d="M97.92,90.97L72.54,65c4.21-5.75,6.74-12.87,6.74-20.59c0-19-15.1-34.45-33.67-34.45
		c-18.57,0-33.67,15.45-33.67,34.45s15.1,34.45,33.67,34.45c7.55,0,14.5-2.59,20.13-6.9l25.38,25.97L97.92,90.97z M15.15,44.41
		c0-17.19,13.66-31.17,30.46-31.17s30.46,13.98,30.46,31.17S62.41,75.58,45.61,75.58C28.82,75.58,15.15,61.59,15.15,44.41z
		 M68.97,69.17c0.29-0.28,0.57-0.57,0.84-0.86c0.23-0.25,0.49-0.48,0.71-0.73l22.87,23.4l-2.27,2.32l-22.86-23.4
		C68.51,69.66,68.73,69.4,68.97,69.17z"/>
</g>
</svg>
