<?xml version="1.0" encoding="utf-8"?>
<!-- Generator: Adobe Illustrator 23.0.3, SVG Export Plug-In . SVG Version: 6.00 Build 0)  -->
<svg version="1.1" id="Layer_1" xmlns="http://www.w3.org/2000/svg" xmlns:xlink="http://www.w3.org/1999/xlink" x="0px" y="0px"
	 viewBox="0 0 100 100" style="enable-background:new 0 0 100 100;" xml:space="preserve">
<style type="text/css">
	.st0{fill:none;stroke:#FFFFFF;stroke-miterlimit:10;}
</style>
<g>
	<path class="st0" d="M84.9,45.7l-4.62-6.32c-0.29-0.41-0.31-0.97-0.02-1.37l4.52-6.38c0.41-0.58,0.21-1.39-0.41-1.72l-6.9-3.69
		c-0.44-0.23-0.7-0.73-0.6-1.24l1.3-7.72c0.12-0.7-0.41-1.35-1.12-1.37l-7.81-0.33c-0.5-0.02-0.95-0.37-1.08-0.85l-2.17-7.54
		c-0.19-0.68-0.95-1.04-1.6-0.75L57.19,9.5c-0.46,0.19-1.01,0.08-1.35-0.29l-5.22-5.82c-0.48-0.52-1.3-0.52-1.78,0.02l-5.14,5.9
		c-0.33,0.39-0.87,0.5-1.33,0.31l-7.23-2.98c-0.66-0.27-1.39,0.1-1.59,0.77l-2.07,7.54c-0.14,0.48-0.56,0.83-1.06,0.87l-7.81,0.44
		c-0.72,0.04-1.22,0.7-1.1,1.39l1.41,7.7c0.1,0.5-0.15,1.01-0.58,1.24l-6.85,3.79c-0.62,0.35-0.79,1.16-0.39,1.72l4.62,6.32
		c0.29,0.41,0.31,0.97,0.02,1.37l-4.52,6.38c-0.41,0.58-0.21,1.39,0.41,1.72l6.9,3.69c0.44,0.23,0.7,0.73,0.6,1.24l-1.3,7.72
		c-0.12,0.7,0.41,1.35,1.12,1.37l7.81,0.33c0.5,0.02,0.95,0.37,1.08,0.85l2.19,7.52c0.19,0.68,0.95,1.04,1.6,0.75l7.19-3.09
		c0.46-0.19,1.01-0.08,1.35,0.29l5.22,5.82c0.48,0.52,1.3,0.52,1.78-0.02l5.14-5.9c0.33-0.39,0.87-0.5,1.33-0.31l7.23,2.98
		c0.66,0.27,1.39-0.1,1.59-0.77l2.07-7.54c0.14-0.48,0.56-0.83,1.06-0.87l7.81-0.44c0.72-0.04,1.22-0.7,1.1-1.39l-1.41-7.7
		c-0.1-0.5,0.15-1.01,0.58-1.24l6.85-3.79C85.15,47.09,85.32,46.28,84.9,45.7z M50.01,60.14c-11.7,0-21.23-9.53-21.23-21.23
		s9.53-21.23,21.23-21.23s21.23,9.53,21.23,21.23C71.24,50.63,61.71,60.14,50.01,60.14z"/>
	<path class="st0" d="M69.14,73.87c-1.12,1.14-2.69,1.82-4.37,1.82c-0.6,0-1.2-0.1-1.76-0.25l-4.99-1.51l-3.85,3.52
		c-0.14,0.12-0.25,0.23-0.39,0.33l6.19,19.18c0.21,0.68,1.08,0.83,1.53,0.27L66,91.45c0.21-0.29,0.6-0.41,0.93-0.31l7.02,2.05
		c0.68,0.19,1.3-0.44,1.08-1.1L69.14,73.87z"/>
	<path class="st0" d="M42.03,73.93l-4.99,1.51c-0.58,0.17-1.16,0.25-1.76,0.25c-1.68,0-3.23-0.68-4.37-1.82l-5.9,18.23
		c-0.21,0.68,0.41,1.3,1.08,1.1l7.02-2.05c0.35-0.1,0.72,0.02,0.93,0.31l4.51,5.78c0.43,0.56,1.31,0.41,1.53-0.27l6.19-19.18
		c-0.14-0.1-0.27-0.21-0.39-0.33L42.03,73.93z"/>
	<polygon class="st0" points="38,40.28 41.47,36.81 47.25,43.75 62.28,31.03 65.75,34.5 47.25,49.53 	"/>
</g>
</svg>
