<?xml version="1.0" encoding="utf-8"?>
<!-- Generator: Adobe Illustrator 23.0.3, SVG Export Plug-In . SVG Version: 6.00 Build 0)  -->
<svg version="1.1" id="Layer_1" xmlns="http://www.w3.org/2000/svg" xmlns:xlink="http://www.w3.org/1999/xlink" x="0px" y="0px"
	 viewBox="0 0 100 100" style="enable-background:new 0 0 100 100;" xml:space="preserve">
<style type="text/css">
	.st0{fill:none;stroke:#FFFFFF;stroke-miterlimit:10;}
</style>
<g>
	<path class="st0" d="M77.42,36.57c0.79,0,1.43,0.54,1.43,1.21c0,3.59,3.46,6.5,7.71,6.5s7.71-2.92,7.71-6.5V26.13l-6.3-13.62H12.03
		l-6.3,13.62v11.64c0,3.59,3.46,6.5,7.71,6.5c4.25,0,7.71-2.92,7.71-6.5c0-0.67,0.64-1.21,1.43-1.21c0.79,0,1.43,0.54,1.43,1.21
		c0,3.59,3.46,6.5,7.71,6.5c4.26,0,7.72-2.92,7.72-6.5c0-0.67,0.64-1.21,1.43-1.21s1.43,0.54,1.43,1.21c0,3.59,3.46,6.5,7.71,6.5
		c4.25,0,7.71-2.92,7.71-6.5c0-0.67,0.64-1.21,1.43-1.21s1.43,0.54,1.43,1.21c0,3.59,3.46,6.5,7.71,6.5s7.71-2.92,7.71-6.5
		C75.99,37.11,76.63,36.57,77.42,36.57z"/>
	<path class="st0" d="M88.74,43.31c0.79,0,1.43,0.54,1.43,1.21v45.87c0,2.89-2.79,5.24-6.21,5.24H16.05c-3.42,0-6.21-2.35-6.21-5.24
		V44.52c0-0.67,0.64-1.21,1.43-1.21"/>
	<rect x="12.69" y="4.56" class="st0" width="75.09" height="5.54"/>
	<line class="st0" x1="10.27" y1="80.73" x2="90.21" y2="80.73"/>
</g>
</svg>
