<?xml version="1.0" encoding="utf-8"?>
<!-- Generator: Adobe Illustrator 23.0.3, SVG Export Plug-In . SVG Version: 6.00 Build 0)  -->
<svg version="1.1" id="Layer_1" xmlns="http://www.w3.org/2000/svg" xmlns:xlink="http://www.w3.org/1999/xlink" x="0px" y="0px"
	 viewBox="0 0 100 100" style="enable-background:new 0 0 100 100;" xml:space="preserve">
<style type="text/css">
	.st0{fill:none;stroke:#FFFFFF;stroke-miterlimit:10;}
	.st1{fill:#FFFFFF;}
</style>
<g>
	<g>
		<g>
			<path class="st0" d="M51.86,51.76l-8.23,5.5l-8.23-5.5v-1.22c2,1.46,4.95,3.24,7.35,3.24c0,0,0.01,0,0.02,0
				c0.81,0.09,4.92,0.33,9.09-3.32L51.86,51.76L51.86,51.76z"/>
		</g>
	</g>
	<g>
		<g>
			<path class="st0" d="M61.42,25.16c0,0.6-0.17,1.19-0.49,1.72v-3.63c0-0.05,0-0.1-0.01-0.15c-0.02-0.19-0.58-4.8-5.51-6.61
				c-0.01,0-0.01,0-0.02-0.01l-6.25-2.19c-0.7-0.25-1.44-0.37-2.18-0.37c-0.79,0-1.58,0.14-2.33,0.43
				c-1.79,0.68-3.18,1.18-4.01,1.45C40.24,15.93,39.84,16,39.43,16H33.5c-0.06,0-0.12,0-0.17,0.01c-0.23,0.03-5.58,0.79-6.93,6.83
				c-0.02,0.1-0.03,0.19-0.03,0.29v2.76c-0.29-0.68-0.45-1.41-0.45-2.16v-7.07c0-5.84,4.75-10.59,10.59-10.59h17.89
				c0.74,0.16,1.64,0.48,1.98,1.14c0.42,0.81-0.06,1.92-0.06,1.92c-0.17,0.37-0.17,0.79,0,1.15c0.17,0.36,0.5,0.63,0.9,0.72
				c3.42,0.82,4.12,4.1,4.21,4.63L61.42,25.16L61.42,25.16z"/>
		</g>
	</g>
	<g>
		<g>
			<path class="st0" d="M60.92,23.11c-0.02-0.19-0.58-4.8-5.51-6.61c-0.01,0-0.01,0-0.02-0.01l-6.25-2.19
				c-1.46-0.51-3.07-0.49-4.51,0.06c-1.79,0.68-3.18,1.18-4.01,1.45C40.24,15.93,39.84,16,39.43,16H33.5c-0.06,0-0.12,0-0.17,0.01
				c-0.23,0.03-5.58,0.79-6.93,6.83c-0.02,0.1-0.03,0.19-0.03,0.29v11.54c0,0.01,0,0.02,0,0.03c0.01,0.4,0.29,9.87,6.83,14.2
				l0.03,0.02c0.03,0.02,0.06,0.04,0.09,0.06c0.37,0.25,0.75,0.53,1.11,0.81c1.91,1.5,5.5,3.98,8.33,3.98c0.01,0,0.01,0,0.02,0
				c0.15,0.02,0.43,0.04,0.8,0.04c1.61,0,5.03-0.42,8.46-3.52c0.58-0.52,1.22-1.03,1.93-1.51l0.1-0.07c0.03-0.02,0.07-0.05,0.1-0.07
				c2.18-1.47,5.96-5.25,6.76-14.11c0-0.04,0.01-0.08,0.01-0.12V23.26C60.93,23.21,60.92,23.16,60.92,23.11z"/>
		</g>
	</g>
	<g>
		<g>
			<path class="st1" d="M44.07,57.57c-0.56-0.18-1.17,0.03-1.5,0.5c-0.38,0.53-0.32,1.26,0.15,1.72c0.26,0.26,0.6,0.39,0.95,0.39
				c0.27,0,0.54-0.08,0.77-0.25c0.36-0.25,0.57-0.66,0.57-1.1v0C45.01,58.26,44.63,57.75,44.07,57.57z"/>
		</g>
	</g>
	<g>
		<g>
			<path class="st1" d="M44.73,58.07l-0.01-0.02c-0.34-0.47-0.95-0.66-1.5-0.48s-0.92,0.7-0.92,1.28v0.02
				c0,0.49,0.28,0.94,0.71,1.18c0.2,0.11,0.42,0.16,0.63,0.16c0.26,0,0.52-0.08,0.75-0.23c0.31-0.2,0.52-0.52,0.58-0.89
				C45.03,58.74,44.94,58.36,44.73,58.07z"/>
		</g>
	</g>
	<g>
		<g>
			<path class="st0" d="M59.61,53.85c-0.14-0.37-0.43-0.66-0.8-0.79l-5.15-1.85c-0.04-0.01-0.08-0.03-0.13-0.04
				c-0.37-0.09-0.76-0.02-1.07,0.19l-9.54,6.37c0,0-0.01,0-0.01,0.01l0.75,1.11l-0.77-1.1c-0.28,0.19-0.48,0.47-0.56,0.79
				c-0.04,0.18-0.05,0.37-0.02,0.55c0.03,0.21,0.12,0.4,0.24,0.57l6.98,9.51c0.25,0.35,0.66,0.55,1.08,0.55c0.03,0,0.06,0,0.09,0
				c0.46-0.03,0.87-0.29,1.09-0.69l7.73-14.06C59.72,54.63,59.75,54.22,59.61,53.85z"/>
		</g>
	</g>
	<g>
		<g>
			<path class="st0" d="M44.96,58.64c-0.06-0.36-0.27-0.68-0.57-0.88l-9.57-6.39c-0.3-0.2-0.68-0.27-1.04-0.19
				c-0.05,0.01-0.11,0.03-0.16,0.05l-5.15,1.85c-0.37,0.13-0.66,0.42-0.8,0.79c-0.14,0.37-0.11,0.78,0.08,1.12l7.73,14.06
				c0.22,0.4,0.63,0.66,1.09,0.69c0.03,0,0.06,0,0.09,0c0.43,0,0.83-0.2,1.08-0.55l3.73-5.08c0,0,0.01-0.01,0.01-0.01l3.24-4.42
				C44.93,59.37,45.02,59,44.96,58.64z"/>
		</g>
	</g>
	<g>
		<g>
			<path class="st0" d="M73.74,58.73l-13-4.7c-0.35-0.14-0.73-0.1-1.06,0.07c-0.14,0.07-0.28,0.17-0.4,0.3
				c-0.36,0.4-0.43,0.95-0.22,1.44c0,0.02,0.01,0.04,0.02,0.06l3.5,7.01l-3.43,0.06c-0.46,0-0.9,0.25-1.13,0.66
				c-0.24,0.4-0.26,0.9-0.04,1.3l1.41,2.69L44.97,80.79c-0.02,0.01-0.03,0.03-0.05,0.04l-0.29,0.3c-0.42,0.42-0.52,1.07-0.23,1.59
				l0.01,0.02c0.23,0.43,0.68,0.69,1.18,0.69h22.47c-1.96-2.77-3.11-6.16-3.11-9.81C64.96,67.22,68.5,61.64,73.74,58.73z"/>
		</g>
	</g>
	<g>
		<g>
			<path class="st0" d="M42.65,81.15L42.65,81.15c-0.01-0.01-0.01-0.01-0.02-0.02l-0.3-0.3c-0.01-0.01-0.03-0.03-0.04-0.04
				L27.89,67.61l1.41-2.69c0.22-0.41,0.2-0.91-0.04-1.31c-0.24-0.4-0.67-0.65-1.13-0.66l-3.43-0.05l3.5-7.02
				c0.25-0.49,0.17-1.08-0.2-1.49c-0.36-0.41-0.94-0.56-1.46-0.37L9.78,60.09c-3.14,1.14-5.43,3.89-5.98,7.19L2.07,77.73
				c-0.24,1.43,0.16,2.87,1.1,3.98c0.93,1.1,2.3,1.73,3.74,1.73h34.8c0.54,0,1.03-0.33,1.24-0.83
				C43.15,82.11,43.04,81.53,42.65,81.15z"/>
		</g>
	</g>
</g>
<path class="st0" d="M73.74,58.94c2.44-1.35,5.25-2.12,8.24-2.12c9.4,0,17.02,7.63,17.02,17.02c0,9.4-7.62,17.02-17.02,17.02
	c-5.75,0-10.82-2.85-13.91-7.21"/>
<polygon class="st0" points="81.8,62.73 85.35,69.92 93.29,71.07 87.55,76.67 88.9,84.58 81.8,80.85 74.7,84.58 76.06,76.67 
	70.31,71.07 78.25,69.92 "/>
</svg>
